{
  "accessors": [
    {
      "bufferView": 2,
      "componentType": 5126,
      "count": 65532,
      "max": [
        1.1649153232574463,
        -20.811534881591797,
        4.517259120941162
      ],
      "min": [
        -2.728459119796753,
        -33.166908264160156,
        -3.431459665298462
      ],
      "type": "VEC3"
    },
    {
      "bufferView": 2,
      "byteOffset": 786384,
      "componentType": 5126,
      "count": 65532,
      "max": [
        0.9999833703041077,
        0.9999443292617798,
        0.9999476671218872
      ],
      "min": [
        -0.9999384880065918,
        -0.9997758865356445,
        -0.9999991655349731
      ],
      "type": "VEC3"
    },
    {
      "bufferView": 1,
      "componentType": 5126,
      "count": 65532,
      "max": [
        0.9982860088348389,
        0.9987789988517761
      ],
      "min": [
        0.0012209999840706587,
        0.25171300768852234
      ],
      "type": "VEC2"
    },
    {
      "bufferView": 0,
      "componentType": 5125,
      "count": 348300,
      "type": "SCALAR"
    },
    {
      "bufferView": 2,
      "byteOffset": 1572768,
      "componentType": 5126,
      "count": 52281,
      "max": [
        1.2624036073684692,
        -20.832061767578125,
        4.4483842849731445
      ],
      "min": [
        -2.706754446029663,
        -33.153873443603516,
        -3.4781672954559326
      ],
      "type": "VEC3"
    },
    {
      "bufferView": 2,
      "byteOffset": 2200140,
      "componentType": 5126,
      "count": 52281,
      "max": [
        0.9999895691871643,
        1.0,
        0.9998968839645386
      ],
      "min": [
        -0.9999951720237732,
        -1.0,
        -0.9999898076057434
      ],
      "type": "VEC3"
    },
    {
      "bufferView": 1,
      "byteOffset": 524256,
      "componentType": 5126,
      "count": 52281,
      "max": [
        0.9982889890670776,
        0.9987789988517761
      ],
      "min": [
        0.0012209999840706587,
        0.5017110109329224
      ],
      "type": "VEC2"
    },
    {
      "bufferView": 0,
      "byteOffset": 1393200,
      "componentType": 5125,
      "count": 271752,
      "type": "SCALAR"
    }
  ],
  "asset": {
    "extras": {
      "author": "Fundacja Collect (https://sketchfab.com/wirtualnemuzeawroclawia)",
      "license": "CC-BY-4.0 (http://creativecommons.org/licenses/by/4.0/)",
      "source": "https://sketchfab.com/3d-models/lemur-08306520d01d4f41aaf5537067e525b0",
      "title": "Lemur"
    },
    "generator": "Sketchfab-12.67.0",
    "version": "2.0"
  },
  "bufferViews": [
    {
      "buffer": 0,
      "byteLength": 2480208,
      "name": "floatBufferViews",
      "target": 34963
    },
    {
      "buffer": 0,
      "byteLength": 942504,
      "byteOffset": 2480208,
      "byteStride": 8,
      "name": "floatBufferViews",
      "target": 34962
    },
    {
      "buffer": 0,
      "byteLength": 2827512,
      "byteOffset": 3422712,
      "byteStride": 12,
      "name": "floatBufferViews",
      "target": 34962
    }
  ],
  "buffers": [
    {
      "byteLength": 6250224,
      "uri": "scene.bin"
    }
  ],
  "images": [
    {
      "uri": "textures/high_Material_u1_v1_baseColor.jpeg"
    }
  ],
  "materials": [
    {
      "doubleSided": true,
      "name": "high_Material_u1_v1",
      "pbrMetallicRoughness": {
        "baseColorTexture": {
          "index": 0
        },
        "metallicFactor": 0.09877885389761538,
        "roughnessFactor": 0.6
      }
    }
  ],
  "meshes": [
    {
      "name": "Object_0",
      "primitives": [
        {
          "attributes": {
            "NORMAL": 1,
            "POSITION": 0,
            "TEXCOORD_0": 2
          },
          "indices": 3,
          "material": 0,
          "mode": 4
        }
      ]
    },
    {
      "name": "Object_1",
      "primitives": [
        {
          "attributes": {
            "NORMAL": 5,
            "POSITION": 4,
            "TEXCOORD_0": 6
          },
          "indices": 7,
          "material": 0,
          "mode": 4
        }
      ]
    }
  ],
  "nodes": [
    {
      "children": [
        1
      ],
      "matrix": [
        -0.8297507166862488,
        4.014864304533765e-16,
        -0.558134138584137,
        0.0,
        -2.7755575615628914e-16,
        -1.0,
        -2.220446049250313e-16,
        0.0,
        -0.558134138584137,
        -1.842416700728597e-16,
        0.8297507166862488,
        0.0,
        -1.0512851476669312,
        -26.469652175903327,
        26.148975372314446,
        1.0
      ],
      "name": "Sketchfab_model"
    },
    {
      "children": [
        2,
        3
      ],
      "name": "high.obj.cleaner.materialmerger.gles"
    },
    {
      "mesh": 0,
      "name": "Object_2"
    },
    {
      "mesh": 1,
      "name": "Object_3"
    }
  ],
  "samplers": [
    {
      "magFilter": 9729,
      "minFilter": 9987,
      "wrapS": 10497,
      "wrapT": 10497
    }
  ],
  "scene": 0,
  "scenes": [
    {
      "name": "Sketchfab_Scene",
      "nodes": [
        0
      ]
    }
  ],
  "textures": [
    {
      "sampler": 0,
      "source": 0
    }
  ]
}
